<svg xmlns="http://www.w3.org/2000/svg" viewBox="0 0 120 120" width="120" height="120" role="img" aria-label="Aviation Sans Frontières">
  <g transform="translate(0,-4)">
    <!-- Aile gauche -->
    <path d="M32 35C35 45 42 55 52 62C55 64 57 66 59 66C60 66 61 65 61 64C58 58 52 46 48 38C47 36 45 35 43 35C41 35 39 36 38 38L32 35Z" fill="#83d0f5"/>
    <path d="M24 45C28 55 37 66 49 73C52 75 54 77 56 77C57 77 58 76 58 75C54 68 47 54 42 45C40 42 38 41 36 41C34 41 31 43 30 45L24 45Z" fill="#1b98c4"/>
    <path d="M18 55C23 65 33 77 46 84C49 86 51 88 53 88C54 88 55 87 55 85C50 78 42 63 36 53C34 50 31 49 29 49C26 49 23 51 22 53L18 55Z" fill="#83d0f5"/>
    <path d="M44 86C52 90 60 92 68 92C78 92 88 88 95 82C98 79 101 76 101 74C101 73 99 72 98 73C90 77 78 81 68 81C58 81 48 77 41 73C40 72 38 73 38 74C38 76 41 79 44 86Z" fill="#1b98c4"/>
    <!-- Aile droite -->
    <path d="M88 35C85 45 78 55 68 62C65 64 63 66 61 66C60 66 59 65 59 64C62 58 68 46 72 38C73 36 75 35 77 35C79 35 81 36 82 38L88 35Z" fill="#83d0f5"/>
    <path d="M96 45C92 55 83 66 71 73C68 75 66 77 64 77C63 77 62 76 62 75C66 68 73 54 78 45C80 42 82 41 84 41C86 41 89 43 90 45L96 45Z" fill="#1b98c4"/>
    <path d="M102 55C97 65 87 77 74 84C71 86 69 88 67 88C66 88 65 87 65 85C70 78 78 63 84 53C86 50 89 49 91 49C94 49 97 51 98 53L102 55Z" fill="#83d0f5"/>
  </g>
</svg>
